<?xml version="1.0" encoding="utf-8"?>
<!-- Generator: Adobe Illustrator 16.0.0, SVG Export Plug-In . SVG Version: 6.00 Build 0)  -->
<!DOCTYPE svg PUBLIC "-//W3C//DTD SVG 1.1//EN" "http://www.w3.org/Graphics/SVG/1.1/DTD/svg11.dtd">
<svg version="1.1" xmlns="http://www.w3.org/2000/svg" xmlns:xlink="http://www.w3.org/1999/xlink" x="0px" y="0px" width="500px"
	 height="500px" viewBox="0 0 500 500" enable-background="new 0 0 500 500" xml:space="preserve">
<g id="Background" display="none">
	<rect display="inline" fill="#E6E6E6" width="500" height="500"/>
</g>
<g id="Logo_1" display="none">
	<g display="inline">
		<rect x="85" y="85" fill="#8E6AAE" width="330" height="100"/>
		<rect x="315" y="85" fill="#8E6AAE" width="100" height="330"/>
		<rect x="85" y="85" fill="#8E6AAE" width="100" height="330"/>
		<rect x="85" y="315" fill="#8E6AAE" width="330" height="100"/>
		<linearGradient id="SVGID_1_" gradientUnits="userSpaceOnUse" x1="85" y1="135" x2="315" y2="135">
			<stop  offset="0.7849" style="stop-color:#8D6AAE;stop-opacity:0"/>
			<stop  offset="1" style="stop-color:#674F7F;stop-opacity:0.6"/>
		</linearGradient>
		<rect x="85" y="85" fill="url(#SVGID_1_)" width="230" height="100"/>
		
			<linearGradient id="SVGID_2_" gradientUnits="userSpaceOnUse" x1="83.9995" y1="136" x2="313.999" y2="136" gradientTransform="matrix(0 1 -1 0 501 1.0005)">
			<stop  offset="0.7849" style="stop-color:#8D6AAE;stop-opacity:0"/>
			<stop  offset="1" style="stop-color:#674F7F;stop-opacity:0.6"/>
		</linearGradient>
		<rect x="315" y="85" fill="url(#SVGID_2_)" width="100" height="230"/>
		
			<linearGradient id="SVGID_3_" gradientUnits="userSpaceOnUse" x1="85" y1="137" x2="315" y2="137" gradientTransform="matrix(-1 0 0 -1 500 502)">
			<stop  offset="0.7849" style="stop-color:#8D6AAE;stop-opacity:0"/>
			<stop  offset="1" style="stop-color:#674F7F;stop-opacity:0.6"/>
		</linearGradient>
		<rect x="185" y="315" fill="url(#SVGID_3_)" width="230" height="100"/>
		
			<linearGradient id="SVGID_4_" gradientUnits="userSpaceOnUse" x1="86" y1="135.9995" x2="316" y2="135.9995" gradientTransform="matrix(0 -1 1 0 -0.9995 501)">
			<stop  offset="0.7849" style="stop-color:#8D6AAE;stop-opacity:0"/>
			<stop  offset="1" style="stop-color:#674F7F;stop-opacity:0.6"/>
		</linearGradient>
		<rect x="85" y="185" fill="url(#SVGID_4_)" width="100" height="230"/>
		<linearGradient id="SVGID_5_" gradientUnits="userSpaceOnUse" x1="272.1973" y1="288.4482" x2="227.8018" y2="211.553">
			<stop  offset="0" style="stop-color:#8D6AAE"/>
			<stop  offset="1" style="stop-color:#6B4F84"/>
		</linearGradient>
		<rect x="217.5" y="217.5" fill="url(#SVGID_5_)" width="65" height="65"/>
	</g>
</g>
<g id="Logo_2" display="none">
	<g display="inline">
		<rect x="85" y="86" fill="#9F79B6" width="330" height="100"/>
		<rect x="315" y="86" fill="#9F79B6" width="100" height="330"/>
		<rect x="85" y="86" fill="#9F79B6" width="100" height="330"/>
		<rect x="85" y="316" fill="#9F79B6" width="330" height="100"/>
		<linearGradient id="SVGID_6_" gradientUnits="userSpaceOnUse" x1="85" y1="136" x2="315" y2="136">
			<stop  offset="0.8495" style="stop-color:#8D6AAE;stop-opacity:0"/>
			<stop  offset="1" style="stop-color:#806293;stop-opacity:0.6"/>
		</linearGradient>
		<rect x="85" y="86" fill="url(#SVGID_6_)" width="230" height="100"/>
		<linearGradient id="SVGID_7_" gradientUnits="userSpaceOnUse" x1="272.1982" y1="289.4492" x2="227.8018" y2="212.5522">
			<stop  offset="0" style="stop-color:#806293"/>
			<stop  offset="1" style="stop-color:#9F79B6"/>
		</linearGradient>
		<rect x="217.5" y="218.5" fill="url(#SVGID_7_)" width="65" height="65"/>
		
			<linearGradient id="SVGID_8_" gradientUnits="userSpaceOnUse" x1="71.9995" y1="149" x2="301.999" y2="149" gradientTransform="matrix(0 1 -1 0 514 14.0005)">
			<stop  offset="0.8495" style="stop-color:#8D6AAE;stop-opacity:0"/>
			<stop  offset="1" style="stop-color:#806293;stop-opacity:0.6"/>
		</linearGradient>
		<rect x="315" y="86" fill="url(#SVGID_8_)" width="100" height="230"/>
		
			<linearGradient id="SVGID_9_" gradientUnits="userSpaceOnUse" x1="85" y1="162" x2="315" y2="162" gradientTransform="matrix(-1 0 0 -1 500 528)">
			<stop  offset="0.8495" style="stop-color:#8D6AAE;stop-opacity:0"/>
			<stop  offset="1" style="stop-color:#806293;stop-opacity:0.6"/>
		</linearGradient>
		<rect x="185" y="316" fill="url(#SVGID_9_)" width="230" height="100"/>
		
			<linearGradient id="SVGID_10_" gradientUnits="userSpaceOnUse" x1="98" y1="148.9995" x2="328" y2="148.9995" gradientTransform="matrix(0 -1 1 0 -13.9995 514)">
			<stop  offset="0.8495" style="stop-color:#8D6AAE;stop-opacity:0"/>
			<stop  offset="1" style="stop-color:#806293;stop-opacity:0.6"/>
		</linearGradient>
		<rect x="85" y="186" fill="url(#SVGID_10_)" width="100" height="230"/>
	</g>
</g>
<g id="Logo_3" display="none">
	<g display="inline">
		<rect x="166.07" y="250" fill="#8E6AAE" width="37.161" height="163"/>
		<path fill="#8E6AAE" d="M250,87c-90.022,0-163,72.978-163,163c0,52.181,24.521,98.631,62.667,128.465V314.01
			C137.851,295.527,131,273.564,131,250c0-65.722,53.278-119,119-119s119,53.278,119,119s-53.278,119-119,119
			c-10.496,0-20.671-1.364-30.366-3.916v45.08C229.474,412.019,239.622,413,250,413c90.022,0,163-72.978,163-163S340.022,87,250,87z
			"/>
		<path fill="#8E6AAE" d="M250,166.07c-46.354,0-83.93,37.576-83.93,83.93v0h37.161v0c0-25.83,20.939-46.77,46.77-46.77
			s46.77,20.939,46.77,46.77S275.83,296.77,250,296.77c-11.594,0-22.194-4.228-30.366-11.214v42.688
			c9.42,3.659,19.653,5.688,30.366,5.688c46.354,0,83.931-37.577,83.931-83.931C333.931,203.646,296.354,166.07,250,166.07z"/>
	</g>
</g>
<g id="Logo_4" display="none">
	<g display="inline">
		<g>
			<path fill="#8E6AAE" d="M215,140.563v219.788l-79.702,9.151V168.431L215,140.563 M250,91.248l-149.702,52.343v265.161
				L250,391.563V91.248L250,91.248z"/>
		</g>
		<g>
			<path fill="#8E6AAE" d="M285,140.564l79.7,27.867v201.072l-79.7-9.151V140.564 M250,91.248v300.314l149.7,17.189V143.591
				L250,91.248L250,91.248z"/>
		</g>
		<polygon fill="none" stroke="#8E6AAE" stroke-width="35" stroke-miterlimit="10" points="442.106,328.551 250,291.457 
			250,191.353 442.106,243.484 		"/>
		<polygon fill="none" stroke="#8E6AAE" stroke-width="35" stroke-miterlimit="10" points="57.894,328.551 250,291.457 250,191.353 
			57.894,243.484 		"/>
	</g>
</g>
<g id="Logo_5" display="none">
	<g display="inline">
		<g>
			<path fill="#8E6AAE" d="M132.431,157.843L230,196.464V375.09l-97.569-63.013V157.843 M112.431,128.417v194.552L250,411.814
				V182.871L112.431,128.417L112.431,128.417z"/>
		</g>
		
			<line fill="none" stroke="#8E6AAE" stroke-width="20" stroke-miterlimit="10" x1="175.629" y1="165.7" x2="174.639" y2="352.671"/>
		<g>
			<path fill="#8E6AAE" d="M367.569,157.843v154.234L270,375.09V196.464L367.569,157.843 M387.569,128.417L250,182.871v228.944
				l137.569-88.846V128.417L387.569,128.417z"/>
		</g>
		
			<line fill="none" stroke="#8E6AAE" stroke-width="20" stroke-miterlimit="10" x1="324.369" y1="165.7" x2="324.369" y2="352.671"/>
		<g>
			<path fill="#8E6AAE" d="M250,109.023l76.042,22.238L250,161.361l-76.042-30.1L250,109.023 M250,88.186l-137.569,40.231
				L250,182.871l137.569-54.454L250,88.186L250,88.186z"/>
		</g>
	</g>
</g>
<g id="Logo_6" display="none">
	<g display="inline">
		<g>
			<path fill="#8E6AAE" d="M111.693,444.287v-292.29l132.672-79.052l143.941-17.232v388.57l-92.239-37.664V226.725l-46.066-24.567
				l-46.067,24.567v179.895L111.693,444.287z M145.896,171.431v221.942l23.835-9.73V206.204l80.27-42.812l80.27,42.812v177.438
				l23.833,9.73V94.255l-98.467,11.788L145.896,171.431z"/>
		</g>
		<g>
			<rect x="232.899" y="276.057" fill="#8E6AAE" width="34.203" height="93.281"/>
		</g>
	</g>
</g>
<g id="Logo_7" display="none">
	<g display="inline">
		<g>
			<path fill="#8E6AAE" d="M330.518,325.494L250,292.617l-80.518,32.877V111.342L250,68.399l80.518,42.943V325.494z M250,252.958
				l43.801,17.886V133.373L250,110.009l-43.801,23.363v137.471L250,252.958z"/>
		</g>
		<g>
			<polygon fill="#8E6AAE" points="387.627,431.602 231.642,377.653 231.642,180.995 268.358,180.995 268.358,351.502 
				350.91,380.052 350.91,248.799 304.34,226.87 319.979,193.652 387.627,225.504 			"/>
		</g>
		<g>
			<polygon fill="#8E6AAE" points="149.089,405.827 112.373,405.827 112.373,225.504 180.021,193.652 195.663,226.87 
				149.089,248.799 			"/>
		</g>
	</g>
</g>
<g id="Logo_8" display="none">
	<g display="inline">
		<g>
			<path fill="none" stroke="#8E6AAE" stroke-width="7" stroke-miterlimit="10" d="M380.065,349.923"/>
		</g>
		<g>
			<path fill="none" stroke="#8E6AAE" stroke-width="7" stroke-miterlimit="10" d="M250,106.367"/>
		</g>
		<g>
			<path fill="#8E6AAE" d="M242.341,418.285L97.527,365.616V151.603L250,81.715l152.474,69.881v231.295L227.58,313.666l0.009-78.034
				l-85.246-35.9V334.23l115.316,41.939L242.341,418.285z M272.401,283.205l85.256,33.75V180.356L250,131.014l-74.392,34.1
				l96.8,40.765L272.401,283.205z"/>
		</g>
	</g>
</g>
<g id="Layer_10" display="none">
	<g display="inline">
		<g>
			<path fill="#8E6AAE" d="M250,434.513l-153.638-62.56V158.311L250,65.487l153.639,92.823v213.643L250,434.513z M137.35,344.388
				L250,390.256l112.65-45.868V181.437L250,113.377l-112.65,68.06V344.388z"/>
		</g>
		<g>
			<polygon fill="#8E6AAE" points="374.288,376.649 229.506,307.275 229.506,250.747 107.496,188.104 126.215,151.643 
				270.494,225.717 270.494,281.465 392,339.688 			"/>
		</g>
	</g>
</g>
<g id="Layer_11" display="none">
	<g display="inline">
		<g>
			<path fill="#8E6AAE" d="M250,444.518L80.653,384.557V147.214L250,55.482l169.347,91.731v237.343L250,444.518z M119.158,357.34
				L250,403.67l130.842-46.33V170.147L250,99.274l-130.842,70.873V357.34z"/>
		</g>
		<g>
			<polygon fill="#8E6AAE" points="108.231,281.488 91.581,246.768 250,170.792 408.419,246.766 391.769,281.484 250,213.498 			"/>
		</g>
		<g>
			<polygon fill="#8E6AAE" points="107.31,388.72 92.502,353.178 250,287.55 407.498,353.178 392.69,388.72 250,329.266 			"/>
		</g>
	</g>
</g>
<g id="Layer_12" display="none">
	<g id="Layer_13_1_" display="inline">
		<g>
			<polygon fill="none" stroke="#8E6BAE" stroke-width="40" stroke-miterlimit="10" points="75.333,472.643 158.968,449.266 
				158.968,202.501 249.999,166.148 337.333,201.024 341.028,449.266 424.667,472.643 424.667,117.527 249.999,37.313 
				75.333,23.356 			"/>
			<line fill="none" stroke="#8E6BAE" stroke-width="40" stroke-miterlimit="10" x1="249.999" y1="248" x2="249.999" y2="376.834"/>
		</g>
	</g>
</g>
<g id="Layer_13">
	<g id="Layer_13_2_">
		<g>
			<polygon fill="none" stroke="#8E6BAE" stroke-width="40" stroke-miterlimit="10" points="424.666,472.643 341.031,449.266 
				341.031,202.5 250,166.147 162.666,201.023 158.971,449.266 75.332,472.643 75.332,117.526 250,37.313 424.666,23.355 			"/>
			<line fill="none" stroke="#8E6BAE" stroke-width="40" stroke-miterlimit="10" x1="250" y1="247.999" x2="250" y2="376.834"/>
		</g>
	</g>
</g>
</svg>
